<mxfile host="app.diagrams.net" modified="2021-03-24T07:39:10.161Z" agent="5.0 (Windows NT 10.0; Win64; x64) AppleWebKit/537.36 (KHTML, like Gecko) Chrome/89.0.4389.90 Safari/537.36" etag="7VuPix7ccMQgtIlhUDtr" version="14.4.8" type="github">
  <diagram id="qvyRHmw6h1rRHHEIUcTp" name="Page-1">
    <mxGraphModel dx="1892" dy="457" grid="1" gridSize="10" guides="1" tooltips="1" connect="1" arrows="1" fold="1" page="1" pageScale="1" pageWidth="827" pageHeight="1169" math="0" shadow="0">
      <root>
        <mxCell id="0" />
        <mxCell id="1" parent="0" />
        <mxCell id="S6QFJlX5Brz25RzAnuvL-3" value="Sale department" style="shape=umlActor;verticalLabelPosition=bottom;verticalAlign=top;html=1;" parent="1" vertex="1">
          <mxGeometry x="40" y="210" width="40" height="40" as="geometry" />
        </mxCell>
        <mxCell id="S6QFJlX5Brz25RzAnuvL-13" value="&lt;br&gt;register new order" style="ellipse;whiteSpace=wrap;html=1;verticalAlign=top;" parent="1" vertex="1">
          <mxGeometry x="140" y="90" width="100" height="60" as="geometry" />
        </mxCell>
        <mxCell id="S6QFJlX5Brz25RzAnuvL-15" value="&lt;br&gt;update order" style="ellipse;whiteSpace=wrap;html=1;verticalAlign=top;" parent="1" vertex="1">
          <mxGeometry x="340" y="220" width="100" height="60" as="geometry" />
        </mxCell>
        <mxCell id="S6QFJlX5Brz25RzAnuvL-16" value="" style="endArrow=open;endFill=1;endSize=12;html=1;entryX=0;entryY=0.333;entryDx=0;entryDy=0;entryPerimeter=0;exitX=0.642;exitY=0.804;exitDx=0;exitDy=0;exitPerimeter=0;" parent="1" source="S6QFJlX5Brz25RzAnuvL-3" target="S6QFJlX5Brz25RzAnuvL-15" edge="1">
          <mxGeometry width="160" relative="1" as="geometry">
            <mxPoint x="110" y="160" as="sourcePoint" />
            <mxPoint x="270" y="150" as="targetPoint" />
          </mxGeometry>
        </mxCell>
        <mxCell id="S6QFJlX5Brz25RzAnuvL-17" value="" style="endArrow=open;endFill=1;endSize=12;html=1;exitX=0.5;exitY=0.5;exitDx=0;exitDy=0;exitPerimeter=0;" parent="1" source="S6QFJlX5Brz25RzAnuvL-3" target="S6QFJlX5Brz25RzAnuvL-13" edge="1">
          <mxGeometry width="160" relative="1" as="geometry">
            <mxPoint x="100" y="140" as="sourcePoint" />
            <mxPoint x="260" y="140" as="targetPoint" />
          </mxGeometry>
        </mxCell>
        <mxCell id="S6QFJlX5Brz25RzAnuvL-20" value="&lt;br&gt;delete order" style="ellipse;whiteSpace=wrap;html=1;verticalAlign=top;" parent="1" vertex="1">
          <mxGeometry x="250" y="140" width="100" height="60" as="geometry" />
        </mxCell>
        <mxCell id="S6QFJlX5Brz25RzAnuvL-21" value="&lt;br&gt;read order" style="ellipse;whiteSpace=wrap;html=1;verticalAlign=top;" parent="1" vertex="1">
          <mxGeometry x="190" y="310" width="100" height="60" as="geometry" />
        </mxCell>
        <mxCell id="S6QFJlX5Brz25RzAnuvL-22" value="" style="endArrow=open;endFill=1;endSize=12;html=1;" parent="1" target="S6QFJlX5Brz25RzAnuvL-20" edge="1">
          <mxGeometry width="160" relative="1" as="geometry">
            <mxPoint x="70" y="240" as="sourcePoint" />
            <mxPoint x="550" y="260" as="targetPoint" />
          </mxGeometry>
        </mxCell>
        <mxCell id="S6QFJlX5Brz25RzAnuvL-23" value="" style="endArrow=open;endFill=1;endSize=12;html=1;exitX=0.492;exitY=0.671;exitDx=0;exitDy=0;exitPerimeter=0;" parent="1" source="S6QFJlX5Brz25RzAnuvL-3" target="S6QFJlX5Brz25RzAnuvL-21" edge="1">
          <mxGeometry width="160" relative="1" as="geometry">
            <mxPoint x="50" y="230" as="sourcePoint" />
            <mxPoint x="210" y="230" as="targetPoint" />
          </mxGeometry>
        </mxCell>
        <mxCell id="S6QFJlX5Brz25RzAnuvL-24" value="&lt;div style=&quot;text-align: left&quot;&gt;manufature department&lt;/div&gt;" style="shape=umlActor;verticalLabelPosition=bottom;verticalAlign=top;html=1;" parent="1" vertex="1">
          <mxGeometry x="42.5" y="360" width="35" height="40" as="geometry" />
        </mxCell>
        <mxCell id="S6QFJlX5Brz25RzAnuvL-25" value="" style="endArrow=open;endFill=1;endSize=12;html=1;exitX=0.5;exitY=0.75;exitDx=0;exitDy=0;exitPerimeter=0;" parent="1" source="S6QFJlX5Brz25RzAnuvL-24" target="S6QFJlX5Brz25RzAnuvL-21" edge="1">
          <mxGeometry width="160" relative="1" as="geometry">
            <mxPoint x="60" y="380" as="sourcePoint" />
            <mxPoint x="200" y="360" as="targetPoint" />
          </mxGeometry>
        </mxCell>
        <mxCell id="S6QFJlX5Brz25RzAnuvL-27" value="schedule manufacturing" style="ellipse;whiteSpace=wrap;html=1;verticalAlign=top;" parent="1" vertex="1">
          <mxGeometry x="390" y="370" width="100" height="60" as="geometry" />
        </mxCell>
        <mxCell id="S6QFJlX5Brz25RzAnuvL-28" value="" style="endArrow=open;endFill=1;endSize=12;html=1;" parent="1" target="S6QFJlX5Brz25RzAnuvL-27" edge="1">
          <mxGeometry width="160" relative="1" as="geometry">
            <mxPoint x="60" y="390" as="sourcePoint" />
            <mxPoint x="220" y="390" as="targetPoint" />
          </mxGeometry>
        </mxCell>
        <mxCell id="S6QFJlX5Brz25RzAnuvL-29" value="get infomation customer" style="ellipse;whiteSpace=wrap;html=1;verticalAlign=top;" parent="1" vertex="1">
          <mxGeometry x="440" y="70" width="100" height="60" as="geometry" />
        </mxCell>
        <mxCell id="S6QFJlX5Brz25RzAnuvL-31" value="Customer Manegerment System" style="shape=umlActor;verticalLabelPosition=bottom;verticalAlign=top;html=1;" parent="1" vertex="1">
          <mxGeometry x="640" y="120" width="40" height="40" as="geometry" />
        </mxCell>
        <mxCell id="S6QFJlX5Brz25RzAnuvL-34" value="" style="endArrow=open;endFill=1;endSize=12;html=1;exitX=0.5;exitY=0.5;exitDx=0;exitDy=0;exitPerimeter=0;" parent="1" source="S6QFJlX5Brz25RzAnuvL-31" target="S6QFJlX5Brz25RzAnuvL-29" edge="1">
          <mxGeometry width="160" relative="1" as="geometry">
            <mxPoint x="660" y="150" as="sourcePoint" />
            <mxPoint x="820" y="150" as="targetPoint" />
          </mxGeometry>
        </mxCell>
        <mxCell id="S6QFJlX5Brz25RzAnuvL-35" value="cancel manufacturing" style="ellipse;whiteSpace=wrap;html=1;verticalAlign=top;" parent="1" vertex="1">
          <mxGeometry x="290" y="470" width="100" height="60" as="geometry" />
        </mxCell>
        <mxCell id="S6QFJlX5Brz25RzAnuvL-36" value="" style="endArrow=open;endFill=1;endSize=12;html=1;exitX=0.595;exitY=0.687;exitDx=0;exitDy=0;exitPerimeter=0;" parent="1" source="S6QFJlX5Brz25RzAnuvL-24" target="S6QFJlX5Brz25RzAnuvL-35" edge="1">
          <mxGeometry width="160" relative="1" as="geometry">
            <mxPoint x="30" y="470" as="sourcePoint" />
            <mxPoint x="190" y="470" as="targetPoint" />
          </mxGeometry>
        </mxCell>
        <mxCell id="S6QFJlX5Brz25RzAnuvL-38" value="update manufacturing" style="ellipse;whiteSpace=wrap;html=1;verticalAlign=top;" parent="1" vertex="1">
          <mxGeometry x="180" y="540" width="100" height="60" as="geometry" />
        </mxCell>
        <mxCell id="S6QFJlX5Brz25RzAnuvL-39" value="" style="endArrow=open;endFill=1;endSize=12;html=1;exitX=0.519;exitY=0.787;exitDx=0;exitDy=0;exitPerimeter=0;" parent="1" source="S6QFJlX5Brz25RzAnuvL-24" target="S6QFJlX5Brz25RzAnuvL-38" edge="1">
          <mxGeometry width="160" relative="1" as="geometry">
            <mxPoint x="30" y="500" as="sourcePoint" />
            <mxPoint x="190" y="500" as="targetPoint" />
          </mxGeometry>
        </mxCell>
        <mxCell id="S6QFJlX5Brz25RzAnuvL-40" value="Extends" style="endArrow=block;endSize=16;endFill=0;html=1;" parent="1" source="S6QFJlX5Brz25RzAnuvL-15" target="S6QFJlX5Brz25RzAnuvL-21" edge="1">
          <mxGeometry width="160" relative="1" as="geometry">
            <mxPoint x="470" y="230" as="sourcePoint" />
            <mxPoint x="630" y="230" as="targetPoint" />
          </mxGeometry>
        </mxCell>
        <mxCell id="S6QFJlX5Brz25RzAnuvL-44" value="Extends" style="endArrow=block;endSize=16;endFill=0;html=1;" parent="1" source="S6QFJlX5Brz25RzAnuvL-27" target="S6QFJlX5Brz25RzAnuvL-21" edge="1">
          <mxGeometry width="160" relative="1" as="geometry">
            <mxPoint x="360" y="340" as="sourcePoint" />
            <mxPoint x="520" y="340" as="targetPoint" />
          </mxGeometry>
        </mxCell>
        <mxCell id="5wcSOidTX3cQCsojHvAN-2" value="Extends" style="endArrow=block;endSize=16;endFill=0;html=1;" edge="1" parent="1" source="S6QFJlX5Brz25RzAnuvL-13" target="S6QFJlX5Brz25RzAnuvL-21">
          <mxGeometry width="160" relative="1" as="geometry">
            <mxPoint x="10" y="40" as="sourcePoint" />
            <mxPoint x="170" y="40" as="targetPoint" />
          </mxGeometry>
        </mxCell>
        <mxCell id="5wcSOidTX3cQCsojHvAN-4" value="Extends" style="endArrow=block;endSize=16;endFill=0;html=1;" edge="1" parent="1" source="S6QFJlX5Brz25RzAnuvL-20" target="S6QFJlX5Brz25RzAnuvL-21">
          <mxGeometry width="160" relative="1" as="geometry">
            <mxPoint x="-170" y="150" as="sourcePoint" />
            <mxPoint x="-10" y="150" as="targetPoint" />
          </mxGeometry>
        </mxCell>
        <mxCell id="5wcSOidTX3cQCsojHvAN-5" value="Extends" style="endArrow=block;endSize=16;endFill=0;html=1;" edge="1" parent="1" source="S6QFJlX5Brz25RzAnuvL-38" target="5wcSOidTX3cQCsojHvAN-6">
          <mxGeometry width="160" relative="1" as="geometry">
            <mxPoint x="-120" y="530" as="sourcePoint" />
            <mxPoint x="10" y="450" as="targetPoint" />
          </mxGeometry>
        </mxCell>
        <mxCell id="5wcSOidTX3cQCsojHvAN-6" value="Read&lt;br&gt;manufacturing" style="ellipse;whiteSpace=wrap;html=1;" vertex="1" parent="1">
          <mxGeometry x="-62.5" y="515" width="140" height="70" as="geometry" />
        </mxCell>
        <mxCell id="5wcSOidTX3cQCsojHvAN-7" value="Extends" style="endArrow=block;endSize=16;endFill=0;html=1;" edge="1" parent="1" source="S6QFJlX5Brz25RzAnuvL-35" target="5wcSOidTX3cQCsojHvAN-6">
          <mxGeometry width="160" relative="1" as="geometry">
            <mxPoint x="-130" y="470" as="sourcePoint" />
            <mxPoint x="30" y="470" as="targetPoint" />
          </mxGeometry>
        </mxCell>
        <mxCell id="5wcSOidTX3cQCsojHvAN-8" value="Extends" style="endArrow=block;endSize=16;endFill=0;html=1;" edge="1" parent="1" source="S6QFJlX5Brz25RzAnuvL-27" target="5wcSOidTX3cQCsojHvAN-6">
          <mxGeometry width="160" relative="1" as="geometry">
            <mxPoint x="-100" y="440" as="sourcePoint" />
            <mxPoint x="60" y="440" as="targetPoint" />
          </mxGeometry>
        </mxCell>
        <mxCell id="5wcSOidTX3cQCsojHvAN-10" value="" style="endArrow=open;endFill=1;endSize=12;html=1;" edge="1" parent="1" source="S6QFJlX5Brz25RzAnuvL-13" target="S6QFJlX5Brz25RzAnuvL-29">
          <mxGeometry width="160" relative="1" as="geometry">
            <mxPoint x="-200" y="380" as="sourcePoint" />
            <mxPoint x="-40" y="380" as="targetPoint" />
          </mxGeometry>
        </mxCell>
        <mxCell id="5wcSOidTX3cQCsojHvAN-11" value="Include" style="edgeLabel;html=1;align=center;verticalAlign=middle;resizable=0;points=[];" vertex="1" connectable="0" parent="5wcSOidTX3cQCsojHvAN-10">
          <mxGeometry x="-0.127" y="-4" relative="1" as="geometry">
            <mxPoint x="2.73" y="-4.86" as="offset" />
          </mxGeometry>
        </mxCell>
      </root>
    </mxGraphModel>
  </diagram>
</mxfile>
